<?xml version="1.0" encoding="utf-8"?>
<svg viewBox="0 3.323 136.493 190.295" xmlns="http://www.w3.org/2000/svg" xmlns:xlink="http://www.w3.org/1999/xlink">
  <g id="logo-group" transform="matrix(1.1404500007629395, 0, 0, 1.1404500007629395, -71.91606140136719, -301.5150451660156)" style="">
    <image id="container" x="272" y="144" width="480" height="480" style="display: none;" transform="translate(0 0)" xlink:href=""/>
    <g id="logo-center" transform="translate(0 0)">
      <image id="icon_container" style="display: none;" x="0" y="0" xlink:href=""/>
      <g id="slogan" style="font-style:normal;font-weight:700;font-size:32px;line-height:1;font-family:Caveat;font-variant-ligatures:none;text-align:center;text-anchor:middle" transform="translate(0 0)"/>
      <g id="title" style="font-style:normal;font-weight:normal;font-size:72px;line-height:1;font-family:'Brandmark Script 5 Highlight';font-variant-ligatures:normal;text-align:center;text-anchor:middle" transform="translate(0 0)">
        <g id="path599157" aria-label="P" transform="translate(0 333.29890470099997) translate(63.05931607399998 -66.002434) scale(3.339) translate(-382.16476 49.968)">
          <path class="c1" d="M87.8512,121.37594c-0.14453,1.43994-0.07227,3.09619,0.21582,3.88818 c0,0.14404-0.21582,0.28809-0.71973,0.28809c-1.29688,0-3.02441-0.72021-3.67285-1.58398 c-0.57617-0.64844-1.22363-1.80029-0.71973-6.48047c0.43164-3.88867,2.30371-11.01709,3.8877-16.48975 c2.73633-9.28857,5.61719-18.72168,8.71289-19.29736c1.22461-0.21631,3.52832,0.57568,4.53711,1.43994 c0.35938,0.28809,0.50391,0.64795,0.43164,0.79199c-0.43164,0.21582-1.00781,0.72021-1.36816,1.36816 c-3.45605,5.76025-5.76074,14.04102-7.27246,19.36963c4.24805-0.07178,10.22461-2.01611,14.76074-6.84033 c4.17676-4.39258,5.76074-8.56885,5.25684-12.31348c-0.43164-3.67236-3.74414-7.4165-9.57715-7.4165 c-5.18457,0-8.4248,1.72803-10.87305,3.81641c-2.44824,2.01611-4.10352,4.75244-4.6084,7.70459 c-0.14355,0.72021-0.14355,2.08838,0,2.59229c-0.35938,0.28809-2.01563-0.21582-2.95216-0.93604 c-0.93553-0.72021-1.72752-1.72803-1.79979-2.66406c-0.21582-2.0166,2.37598-6.12061,7.2002-9.28906 c3.24023-2.01611,7.99316-3.74414,13.17773-3.74414c7.56055,0,13.68066,3.02393,15.12109,8.64063 c1.72852,6.76855-3.74414,13.75293-7.2002,16.56152c-6.04883,4.96826-14.11328,6.48047-19.1543,6.12061 C90.01135,111.22311,88.28284,116.98336,87.8512,121.37594z" transform="translate(300.086775 -125.54725)" stroke-width="0" stroke-linejoin="miter" stroke-miterlimit="2" fill="#3253ac" stroke="#3253ac"/>
          <radialGradient id="5d60c8ae-eef6-434b-aafd-b5d929d0dc54" cx="80.08337" cy="90.83011" r="25.51031" gradientUnits="userSpaceOnUse" transform="translate(300.086775 -125.54725)">
            <stop offset="0.094" style="stop-color:#bee6f8"/>
            <stop offset="0.5642" style="stop-color:#bee6f8;stop-opacity:0"/>
          </radialGradient>
          <path class="highlight" fill="url(#5d60c8ae-eef6-434b-aafd-b5d929d0dc54)" d="M94.92429,76.76675c-2.14809,0.67722-4.06592,1.58395-5.63039,2.55762 c-4.82422,3.16797-7.41602,7.27246-7.2002,9.28809c0.07227,0.93652,0.86426,1.94434,1.7998,2.66406 c0.93652,0.7207,2.59277,1.22461,2.95215,0.93652c-0.92572-0.56177-2.34857-2.14368-2.23218-4.01788 c0.11951-1.92291,1.82922-5.18311,6.17303-8.03558c1.22475-0.76225,2.60443-1.45687,4.13777-2.00605V76.76675z" transform="translate(300.086775 -125.54725)" stroke-width="0" stroke-linejoin="miter" stroke-miterlimit="2" opacity="1"/>
          <radialGradient id="7e9609e5-7f00-43d4-8cd3-0da4388c4983" cx="96.4006" cy="73.52326" r="41.08618" gradientUnits="userSpaceOnUse" transform="translate(300.086775 -125.54725)">
            <stop offset="0.5633" style="stop-color:#bee6f8;stop-opacity:0"/>
            <stop offset="0.8339" style="stop-color:#bee6f8"/>
          </radialGradient>
          <path class="highlight" fill="url(#7e9609e5-7f00-43d4-8cd3-0da4388c4983)" d="M108.0768,99.83383c3.10504-2.53644,8.10577-8.00989,6.69336-14.97687 c-1.03729-5.11658-6.86481-7.94391-12.60461-7.94391c-4.66827,0-8.46149,1.43073-11.37903,3.24652 c-4.34381,2.85248-6.05353,6.11267-6.17303,8.03558c-0.11639,1.87421,1.30646,3.45612,2.23218,4.01788 c-0.14355-0.50391-0.14355-1.87207,0-2.5918c0.50488-2.95313,2.16016-5.68848,4.6084-7.70508 c2.44824-2.08789,5.68848-3.81641,10.87305-3.81641c5.83301,0,9.14551,3.74414,9.57715,7.41699 c0.50391,3.74414-1.08008,7.91992-5.25684,12.3125c-4.53613,4.82422-10.5127,6.76855-14.76074,6.84082 c-0.07306,0.26184-0.19287,0.67389-0.31134,1.07861C96.72639,105.9993,102.6227,104.28934,108.0768,99.83383z" transform="translate(300.086775 -125.54725)" stroke-width="0" stroke-linejoin="miter" stroke-miterlimit="2" opacity="1"/>
          <radialGradient id="7ed3fe0d-dc2b-4c32-884e-740fa73dfa59" cx="106.58281" cy="68.67865" r="35.32959" gradientUnits="userSpaceOnUse" transform="translate(300.086775 -125.54725)">
            <stop offset="0.1229" style="stop-color:#bee6f8"/>
            <stop offset="0.6304" style="stop-color:#bee6f8;stop-opacity:0"/>
          </radialGradient>
          <path class="highlight" fill="url(#7ed3fe0d-dc2b-4c32-884e-740fa73dfa59)" d="M117.59273,84.21988c-1.44043-5.61621-7.56055-8.64063-15.12109-8.64063 c-5.18457,0-9.9375,1.72852-13.17773,3.74512c-4.82422,3.16797-7.41602,7.27246-7.2002,9.28809 c0.07227,0.93652,0.86426,1.94434,1.7998,2.66406c0.93652,0.7207,2.59277,1.22461,2.95215,0.93652 c-0.92572-0.56177-2.34857-2.14368-2.23218-4.01788c0.11951-1.92291,1.82922-5.18311,6.17303-8.03558 c2.91754-1.8158,6.71075-3.24652,11.37903-3.24652c5.73981,0,11.56732,2.82733,12.60461,7.94391 c1.41241,6.96698-3.58832,12.44043-6.69336,14.97687c-5.4541,4.45551-11.3504,6.16547-16.50146,5.91486 c-0.1427,0.48767-0.28339,0.9646-0.3371,1.15381c5.04102,0.35938,13.10547-1.15234,19.1543-6.12109 C113.84859,97.97379,119.32124,90.98941,117.59273,84.21988z" transform="translate(300.086775 -125.54725)" stroke-width="0" stroke-linejoin="miter" stroke-miterlimit="2" opacity="1"/>
          <radialGradient id="275006d0-8280-4aaf-8208-0771008d2db4" cx="99.64796" cy="79.6655" r="57.39164" gradientUnits="userSpaceOnUse" transform="translate(300.086775 -125.54725)">
            <stop offset="0.5015" style="stop-color:#bee6f8;stop-opacity:0"/>
            <stop offset="0.9227" style="stop-color:#bee6f8"/>
          </radialGradient>
          <path class="highlight" fill="url(#275006d0-8280-4aaf-8208-0771008d2db4)" d="M96.45058,84.45255c-1.41577,1.13971-2.06409,2.53314-6.10901,14.93756 c-3.06519,9.3999-5.46399,19.33179-4.935,22.67578c0.22528,1.42419,1.16742,2.71313,2.6637,3.19794 c-0.28809-0.79199-0.36035-2.44824-0.21582-3.88867c0.43164-4.3916,2.16016-10.15234,3.38379-14.47266 c0.09833-0.34619,0.48737-1.65503,0.64844-2.23242c1.51172-5.32813,3.81641-13.60938,7.27246-19.37012 c0.36035-0.64746,0.93652-1.15137,1.36816-1.36719C98.97035,83.41592,97.40822,83.68161,96.45058,84.45255z" transform="translate(300.086775 -125.54725)" stroke-width="0" stroke-linejoin="miter" stroke-miterlimit="2" opacity="1"/>
          <linearGradient id="589c5f29-b6cd-45ba-bf04-a5827a959c85" gradientUnits="userSpaceOnUse" x1="85.09436" y1="101.85023" x2="97.7013" y2="105.61236">
            <stop offset="0.2272" style="stop-color:#bee6f8"/>
            <stop offset="0.3963" style="stop-color:#bee6f8;stop-opacity:0"/>
          </linearGradient>
          <path class="highlight" fill="url(#589c5f29-b6cd-45ba-bf04-a5827a959c85)" d="M96.45058,84.45255c-1.41577,1.13971-2.06409,2.53314-6.10901,14.93756 c-3.06519,9.3999-5.46399,19.33179-4.935,22.67578c0.22528,1.42419,1.16742,2.71313,2.6637,3.19794 c-0.28809-0.79199-0.36035-2.44824-0.21582-3.88867c0.43164-4.3916,2.16016-10.15234,3.38379-14.47266 c0.09833-0.34619,0.48737-1.65503,0.64844-2.23242c1.51172-5.32813,3.81641-13.60938,7.27246-19.37012 c0.36035-0.64746,0.93652-1.15137,1.36816-1.36719C98.97035,83.41592,97.40822,83.68161,96.45058,84.45255z" transform="translate(300.086775 -125.54725)" stroke-width="0" stroke-linejoin="miter" stroke-miterlimit="2" opacity="1"/>
          <radialGradient id="c0c75fbb-543d-439f-9348-614e09b6d15d" cx="89.27135" cy="73.04857" r="29.61569" gradientUnits="userSpaceOnUse" transform="translate(300.086775 -125.54725)">
            <stop offset="0.2382" style="stop-color:#bee6f8"/>
            <stop offset="0.8946" style="stop-color:#bee6f8;stop-opacity:0"/>
          </radialGradient>
          <path class="highlight" fill="url(#c0c75fbb-543d-439f-9348-614e09b6d15d)" d="M100.09566,83.1398c-1.00879-0.86328-3.3125-1.65527-4.53711-1.43945 c-3.0957,0.57617-5.97656,10.00879-8.71289,19.29785c-1.58398,5.47168-3.45605,12.60059-3.8877,16.48926 c-0.50391,4.67969,0.14355,5.83203,0.71973,6.48047c0.64844,0.86426,2.37598,1.58398,3.67285,1.58398 c0.50391,0,0.71973-0.14355,0.71973-0.28809c-1.49628-0.4848-2.43842-1.77374-2.6637-3.19794 c-0.52899-3.34399,1.86981-13.27588,4.935-22.67578c4.04492-12.40442,4.69324-13.79785,6.10901-14.93756 c0.95764-0.77094,2.51978-1.03662,4.07672-0.51978C100.59956,83.78824,100.45503,83.42789,100.09566,83.1398z" transform="translate(300.086775 -125.54725)" stroke-width="0" stroke-linejoin="miter" stroke-miterlimit="2" opacity="1"/>
          <linearGradient id="d7c0e53a-36aa-4729-9b13-6954ea0543df" gradientUnits="userSpaceOnUse" x1="97.90799" y1="100.04637" x2="89.43981" y2="98.23694">
            <stop offset="0.1933" style="stop-color:#bee6f8;stop-opacity:0"/>
            <stop offset="0.6455" style="stop-color:#bee6f8"/>
          </linearGradient>
          <path class="highlight" fill="url(#d7c0e53a-36aa-4729-9b13-6954ea0543df)" d="M108.27737,95.96392c-0.49164,0.61696-1.03433,1.23893-1.62994,1.86533 c-4.53613,4.82422-10.5127,6.76855-14.76074,6.84082c-0.07306,0.26184-0.19287,0.67389-0.31134,1.07861 c5.15106,0.25061,11.04736-1.45935,16.50146-5.91486c1.13068-0.92363,2.51254-2.23708,3.74478-3.86991H108.27737z" transform="translate(300.086775 -125.54725)" stroke-width="0" stroke-linejoin="miter" stroke-miterlimit="2" opacity="1"/>
          <linearGradient id="fd3aff55-c216-4a95-b546-e300c118fe6f" gradientUnits="userSpaceOnUse" x1="114.58707" y1="102.27468" x2="91.13673" y2="100.57381">
            <stop offset="0.2223" style="stop-color:#bee6f8;stop-opacity:0"/>
            <stop offset="0.939" style="stop-color:#bee6f8"/>
          </linearGradient>
          <path class="highlight" fill="url(#fd3aff55-c216-4a95-b546-e300c118fe6f)" d="M111.82159,95.96392c-1.23224,1.63283-2.61411,2.94628-3.74478,3.86991 c-5.4541,4.45551-11.3504,6.16547-16.50146,5.91486c-0.1427,0.48767-0.28339,0.9646-0.3371,1.15381 c5.04102,0.35938,13.10547-1.15234,19.1543-6.12109c1.32361-1.07527,2.94273-2.76364,4.34012-4.81748H111.82159z" transform="translate(300.086775 -125.54725)" stroke-width="0" stroke-linejoin="miter" stroke-miterlimit="2" opacity="1"/>
        </g>
      </g>
      <image id="icon" style="display: none;" x="0" y="0" xlink:href=""/>
    </g>
  </g>
</svg>